<svg xmlns="http://www.w3.org/2000/svg" xmlns:xlink="http://www.w3.org/1999/xlink" xmlns:inkscape="http://www.inkscape.org/namespaces/inkscape" version="1.1" width="2000" height="2000" viewBox="0 0 2000 2000">
<defs>
<clipPath id="clip_1">
<path transform="matrix(1,0,0,-1,0,2000)" d="M0 2000H2000V0H0Z"/>
</clipPath>
</defs>
<g inkscape:groupmode="layer" inkscape:label="Layer 1">
<g clip-path="url(#clip_1)">
<path transform="matrix(1,0,0,-1,517.5603,738.6925)" d="M0 0C.332-128.457 109.327-234.696 235.078-235.251L323.22-231.546C353.033-231.678 377.608-249.27 386.713-273.662 397.559-302.717 390.36-332.006 365.186-352.121L-105.402-728.137C-115.321-736.062-121.342-747.627-121.339-759.738L-121.889-813.187C-123.066-869.079-89.459-896.249-68.145-896.219L253.072-894.523 1067.211-307.28C1076.551-299.817 1082.241-287.192 1082.239-275.98L1086.799-118.864C1086.795-97.538 1071.66-80.703 1049.845-80.714L613.487-80.936C552.352-80.967 506.838-36.414 506.868 24.695L507.023 335.747C507.033 356.9 491.687 373.601 469.717 373.604L36.656 369.044C16.659 369.047-.918 354.822-.866 334.615Z" fill="#F9F7F2"/>
</g>
</g>
</svg>
