<svg xmlns="http://www.w3.org/2000/svg" xmlns:xlink="http://www.w3.org/1999/xlink" xmlns:inkscape="http://www.inkscape.org/namespaces/inkscape" version="1.1" width="2000" height="2000" viewBox="0 0 2000 2000">
<defs>
<clipPath id="clip_1">
<path transform="matrix(1,0,0,-1,0,2000)" d="M0 2000H2000V0H0Z"/>
</clipPath>
<clipPath id="clip_2">
<path transform="matrix(1,0,0,-1,0,2000)" d="M230.255 314.156H1536.13V1685.84H230.255Z"/>
</clipPath>
<clipPath id="clip_3">
<path transform="matrix(1,0,0,-1,0,2000)" d="M287.883 314.156H1593.76V1685.84H287.883Z"/>
</clipPath>
<clipPath id="clip_4">
<path transform="matrix(1,0,0,-1,0,2000)" d="M339.441 314.156H1645.32V1685.84H339.441Z"/>
</clipPath>
<clipPath id="clip_5">
<path transform="matrix(1,0,0,-1,0,2000)" d="M397.069 314.156H1702.94V1685.84H397.069Z"/>
</clipPath>
<clipPath id="clip_6">
<path transform="matrix(1,0,0,-1,0,2000)" d="M451.683 314.156H1757.56V1685.84H451.683Z"/>
</clipPath>
<clipPath id="clip_7">
<path transform="matrix(1,0,0,-1,0,2000)" d="M509.311 314.156H1815.19V1685.84H509.311Z"/>
</clipPath>
</defs>
<g>
<g inkscape:groupmode="layer" inkscape:label="Layer 1">
<g clip-path="url(#clip_1)">
<path transform="matrix(1,0,0,-1,318.1306,718.55349)" d="M0 0C.358-138.357 117.753-252.784 253.196-253.382L348.13-249.392C380.241-249.533 406.71-268.481 416.517-294.753 428.198-326.048 420.445-357.594 393.331-379.259L-113.526-784.254C-124.209-792.79-130.694-805.247-130.691-818.291L-131.283-875.859C-132.551-936.059-96.353-965.323-73.397-965.291L272.576-963.464 1149.461-330.963C1159.521-322.924 1165.649-309.326 1165.647-297.25L1170.558-128.025C1170.554-105.055 1154.253-86.923 1130.757-86.935L660.768-87.174C594.921-87.207 545.9-39.22 545.932 26.599L546.099 361.623C546.11 384.407 529.581 402.395 505.918 402.398L39.481 397.487C17.943 397.489-.989 382.168-.933 360.404Z" fill="#3abd96"/>
<g opacity=".460007">
<g clip-path="url(#clip_2)">
<path transform="matrix(1,0,0,-1,363.5707,718.55349)" stroke-width="4" stroke-linecap="butt" stroke-miterlimit="10" stroke-linejoin="miter" fill="none" stroke="#232323" d="M0 0C.358-138.357 117.753-252.784 253.196-253.382L348.13-249.392C380.241-249.533 406.71-268.481 416.517-294.753 428.198-326.048 420.445-357.594 393.331-379.259L-113.526-784.254C-124.209-792.79-130.694-805.247-130.691-818.291L-131.283-875.859C-132.551-936.059-96.353-965.323-73.397-965.291L272.576-963.464 1149.461-330.963C1159.521-322.924 1165.649-309.326 1165.647-297.25L1170.559-128.025C1170.554-105.055 1154.252-86.923 1130.757-86.935L660.768-87.174C594.921-87.207 545.9-39.22 545.932 26.599L546.099 361.623C546.11 384.407 529.581 402.395 505.918 402.398L39.481 397.487C17.943 397.489-.989 382.168-.933 360.404L0 0Z"/>
</g>
</g>
<g opacity=".460007">
<g clip-path="url(#clip_3)">
<path transform="matrix(1,0,0,-1,421.1988,718.55349)" stroke-width="4" stroke-linecap="butt" stroke-miterlimit="10" stroke-linejoin="miter" fill="none" stroke="#232323" d="M0 0C.358-138.357 117.753-252.784 253.196-253.382L348.13-249.392C380.241-249.533 406.71-268.481 416.517-294.753 428.198-326.048 420.445-357.594 393.331-379.259L-113.526-784.254C-124.209-792.79-130.694-805.247-130.691-818.291L-131.283-875.859C-132.551-936.059-96.353-965.323-73.397-965.291L272.576-963.464 1149.461-330.963C1159.521-322.924 1165.649-309.326 1165.647-297.25L1170.559-128.025C1170.554-105.055 1154.252-86.923 1130.757-86.935L660.768-87.174C594.921-87.207 545.9-39.22 545.932 26.599L546.099 361.623C546.11 384.407 529.581 402.395 505.918 402.398L39.481 397.487C17.943 397.489-.989 382.168-.933 360.404L0 0Z"/>
</g>
</g>
<g opacity=".460007">
<g clip-path="url(#clip_4)">
<path transform="matrix(1,0,0,-1,472.7569,718.55349)" stroke-width="4" stroke-linecap="butt" stroke-miterlimit="10" stroke-linejoin="miter" fill="none" stroke="#232323" d="M0 0C.358-138.357 117.753-252.784 253.196-253.382L348.13-249.392C380.241-249.533 406.71-268.481 416.517-294.753 428.198-326.048 420.445-357.594 393.331-379.259L-113.526-784.254C-124.209-792.79-130.694-805.247-130.691-818.291L-131.283-875.859C-132.551-936.059-96.353-965.323-73.397-965.291L272.576-963.464 1149.461-330.963C1159.52-322.924 1165.649-309.326 1165.647-297.25L1170.558-128.025C1170.554-105.055 1154.252-86.923 1130.757-86.935L660.768-87.174C594.921-87.207 545.9-39.22 545.932 26.599L546.099 361.623C546.11 384.407 529.581 402.395 505.918 402.398L39.481 397.487C17.943 397.489-.989 382.168-.933 360.404L0 0Z"/>
</g>
</g>
<g opacity=".460007">
<g clip-path="url(#clip_5)">
<path transform="matrix(1,0,0,-1,530.3849,718.55349)" stroke-width="4" stroke-linecap="butt" stroke-miterlimit="10" stroke-linejoin="miter" fill="none" stroke="#232323" d="M0 0C.358-138.357 117.753-252.784 253.196-253.382L348.13-249.392C380.241-249.533 406.71-268.481 416.517-294.753 428.198-326.048 420.445-357.594 393.331-379.259L-113.526-784.254C-124.209-792.79-130.694-805.247-130.691-818.291L-131.283-875.859C-132.551-936.059-96.353-965.323-73.397-965.291L272.576-963.464 1149.461-330.963C1159.521-322.924 1165.649-309.326 1165.647-297.25L1170.559-128.025C1170.554-105.055 1154.252-86.923 1130.757-86.935L660.768-87.174C594.921-87.207 545.9-39.22 545.932 26.599L546.099 361.623C546.11 384.407 529.581 402.395 505.918 402.398L39.481 397.487C17.943 397.489-.989 382.168-.933 360.404L0 0Z"/>
</g>
</g>
<g opacity=".460007">
<g clip-path="url(#clip_6)">
<path transform="matrix(1,0,0,-1,584.9987,718.55349)" stroke-width="4" stroke-linecap="butt" stroke-miterlimit="10" stroke-linejoin="miter" fill="none" stroke="#232323" d="M0 0C.358-138.357 117.753-252.784 253.196-253.382L348.13-249.392C380.241-249.533 406.71-268.481 416.517-294.753 428.198-326.048 420.445-357.594 393.331-379.259L-113.526-784.254C-124.209-792.79-130.694-805.247-130.691-818.291L-131.283-875.859C-132.551-936.059-96.353-965.323-73.397-965.291L272.576-963.464 1149.461-330.963C1159.521-322.924 1165.649-309.326 1165.647-297.25L1170.558-128.025C1170.554-105.055 1154.253-86.923 1130.757-86.935L660.768-87.174C594.921-87.207 545.9-39.22 545.932 26.599L546.099 361.623C546.11 384.407 529.581 402.395 505.918 402.398L39.481 397.487C17.943 397.489-.989 382.168-.933 360.404L0 0Z"/>
</g>
</g>
<g opacity=".460007">
<g clip-path="url(#clip_7)">
<path transform="matrix(1,0,0,-1,642.6267,718.55349)" stroke-width="4" stroke-linecap="butt" stroke-miterlimit="10" stroke-linejoin="miter" fill="none" stroke="#232323" d="M0 0C.358-138.357 117.753-252.784 253.196-253.382L348.13-249.392C380.241-249.533 406.71-268.481 416.517-294.753 428.198-326.048 420.445-357.594 393.331-379.259L-113.526-784.254C-124.209-792.79-130.694-805.247-130.691-818.291L-131.283-875.859C-132.551-936.059-96.353-965.323-73.397-965.291L272.576-963.464 1149.461-330.963C1159.52-322.924 1165.649-309.326 1165.647-297.25L1170.558-128.025C1170.554-105.055 1154.253-86.923 1130.757-86.935L660.768-87.174C594.921-87.207 545.9-39.22 545.932 26.599L546.099 361.623C546.11 384.407 529.581 402.395 505.918 402.398L39.481 397.487C17.943 397.489-.989 382.168-.933 360.404L0 0Z"/>
</g>
</g>
</g>
</g>
</g>
</svg>
